<svg width="16" height="16" viewBox="0 0 16 16" fill="none" xmlns="http://www.w3.org/2000/svg">
<path d="M5.33333 9.33333C5.14444 9.33333 4.98622 9.26933 4.85867 9.14133C4.73111 9.01333 4.66711 8.85511 4.66667 8.66667C4.66622 8.47822 4.73022 8.32 4.85867 8.192C4.98711 8.064 5.14533 8 5.33333 8C5.52133 8 5.67978 8.064 5.80867 8.192C5.93756 8.32 6.00133 8.47822 6 8.66667C5.99867 8.85511 5.93467 9.01356 5.808 9.142C5.68133 9.27045 5.52311 9.33422 5.33333 9.33333ZM8 9.33333C7.81111 9.33333 7.65289 9.26933 7.52533 9.14133C7.39778 9.01333 7.33378 8.85511 7.33333 8.66667C7.33289 8.47822 7.39689 8.32 7.52533 8.192C7.65378 8.064 7.812 8 8 8C8.188 8 8.34644 8.064 8.47533 8.192C8.60422 8.32 8.668 8.47822 8.66667 8.66667C8.66533 8.85511 8.60133 9.01356 8.47467 9.142C8.348 9.27045 8.18978 9.33422 8 9.33333ZM10.6667 9.33333C10.4778 9.33333 10.3196 9.26933 10.192 9.14133C10.0644 9.01333 10.0004 8.85511 10 8.66667C9.99956 8.47822 10.0636 8.32 10.192 8.192C10.3204 8.064 10.4787 8 10.6667 8C10.8547 8 11.0131 8.064 11.142 8.192C11.2709 8.32 11.3347 8.47822 11.3333 8.66667C11.332 8.85511 11.268 9.01356 11.1413 9.142C11.0147 9.27045 10.8564 9.33422 10.6667 9.33333ZM3.33333 14.6667C2.96667 14.6667 2.65289 14.5362 2.392 14.2753C2.13111 14.0144 2.00044 13.7004 2 13.3333V4C2 3.63333 2.13067 3.31956 2.392 3.05867C2.65333 2.79778 2.96711 2.66711 3.33333 2.66667H4V2C4 1.81111 4.064 1.65289 4.192 1.52533C4.32 1.39778 4.47822 1.33378 4.66667 1.33333C4.85511 1.33289 5.01356 1.39689 5.142 1.52533C5.27044 1.65378 5.33422 1.812 5.33333 2V2.66667H10.6667V2C10.6667 1.81111 10.7307 1.65289 10.8587 1.52533C10.9867 1.39778 11.1449 1.33378 11.3333 1.33333C11.5218 1.33289 11.6802 1.39689 11.8087 1.52533C11.9371 1.65378 12.0009 1.812 12 2V2.66667H12.6667C13.0333 2.66667 13.3473 2.79733 13.6087 3.05867C13.87 3.32 14.0004 3.63378 14 4V13.3333C14 13.7 13.8696 14.014 13.6087 14.2753C13.3478 14.5367 13.0338 14.6671 12.6667 14.6667H3.33333ZM3.33333 13.3333H12.6667V6.66667H3.33333V13.3333Z" fill="#998989"/>
</svg>
