<svg width="23" height="23" viewBox="0 0 23 23" fill="none" xmlns="http://www.w3.org/2000/svg">
<path d="M19.7103 14.2408L21.0807 12.8704L19.7103 11.5L16.2891 14.9212L8.07615 6.70832L11.4974 3.28707L10.127 1.91666L8.75656 3.28707L7.38615 1.91666L5.33531 3.96749L3.9649 2.59707L2.59448 3.96749L3.9649 5.33791L1.91406 7.38874L3.28448 8.75916L1.91406 10.1296L3.28448 11.5L6.70573 8.07874L14.9186 16.2917L11.4974 19.7129L12.8678 21.0833L14.2382 19.7129L15.6086 21.0833L17.6595 19.0325L19.0299 20.4029L20.4003 19.0325L19.0299 17.6621L21.0807 15.6112L19.7103 14.2408Z" fill="#4C3E3E"/>
</svg>
