<svg width="24" height="24" viewBox="0 0 24 24" fill="none" xmlns="http://www.w3.org/2000/svg">
<path d="M10.9263 16.9C11.5788 14.5375 13.8603 12.85 16.4883 13.129C18.9903 13.3945 20.9793 15.505 21.1053 18.016C21.1368 18.6775 21.0468 19.312 20.8533 19.9015C20.7363 20.2615 20.3853 20.5 20.0028 20.5H6.60093C4.32933 20.5 2.62563 18.4214 3.07113 16.1939L5.80983 2.5H11.2098L13.0098 5.65L9.15333 8.4085L8.05983 7" fill="#D0B628"/>
<path d="M10.9263 16.9C11.5788 14.5375 13.8603 12.85 16.4883 13.129C18.9903 13.3945 20.9793 15.505 21.1053 18.016C21.1368 18.6775 21.0468 19.312 20.8533 19.9015C20.7363 20.2615 20.3853 20.5 20.0028 20.5H6.60093C4.32933 20.5 2.62563 18.4214 3.07113 16.1939L5.80983 2.5H11.2098L13.0098 5.65L9.15333 8.4085L8.05983 7M9.15783 8.4085L11.2098 16" stroke="#D0B628" stroke-width="2" stroke-miterlimit="2" stroke-linecap="round" stroke-linejoin="round"/>
</svg>
