<svg width="16" height="16" viewBox="0 0 16 16" fill="none" xmlns="http://www.w3.org/2000/svg">
<path d="M7.9987 1.33333C11.6807 1.33333 14.6654 4.318 14.6654 8C14.6654 11.682 11.6807 14.6667 7.9987 14.6667C4.3167 14.6667 1.33203 11.682 1.33203 8C1.33203 4.318 4.3167 1.33333 7.9987 1.33333ZM7.9987 2.66667C6.58421 2.66667 5.22766 3.22857 4.22746 4.22876C3.22727 5.22896 2.66536 6.58551 2.66536 8C2.66536 9.41449 3.22727 10.771 4.22746 11.7712C5.22766 12.7714 6.58421 13.3333 7.9987 13.3333C9.41319 13.3333 10.7697 12.7714 11.7699 11.7712C12.7701 10.771 13.332 9.41449 13.332 8C13.332 6.58551 12.7701 5.22896 11.7699 4.22876C10.7697 3.22857 9.41319 2.66667 7.9987 2.66667ZM7.9987 4C8.16199 4.00002 8.31959 4.05997 8.44161 4.16848C8.56364 4.27698 8.64159 4.4265 8.6607 4.58867L8.66536 4.66667V7.724L10.47 9.52867C10.5896 9.64864 10.659 9.80962 10.6642 9.97892C10.6694 10.1482 10.6099 10.3131 10.4979 10.4402C10.3858 10.5672 10.2297 10.6469 10.061 10.6629C9.89243 10.679 9.72402 10.6303 9.59003 10.5267L9.52736 10.4713L7.52736 8.47133C7.42375 8.36763 7.35721 8.23267 7.33803 8.08733L7.33203 8V4.66667C7.33203 4.48986 7.40227 4.32029 7.52729 4.19526C7.65232 4.07024 7.82189 4 7.9987 4Z" fill="#998989"/>
</svg>
