<svg width="16" height="16" viewBox="0 0 16 16" fill="none" xmlns="http://www.w3.org/2000/svg">
<path d="M8.0015 0.833333C8.83513 0.833344 9.67792 0.900574 10.3934 1.03971C10.7512 1.10929 11.0869 1.19877 11.3778 1.3112C11.6624 1.42121 11.9346 1.56475 12.1402 1.75846L12.2229 1.83984C12.411 2.03441 12.5645 2.26016 12.6766 2.50716C12.9126 3.02727 12.8596 3.51424 12.6786 4.06706C12.5084 4.58664 12.1855 5.27367 11.7951 6.19531C11.6873 6.44944 11.3937 6.56797 11.1395 6.46029C10.8853 6.35254 10.7668 6.05892 10.8745 5.80469C11.292 4.8192 11.5753 4.22238 11.7281 3.75586C11.8699 3.32274 11.8565 3.12035 11.7658 2.92057C11.6918 2.75754 11.5865 2.61071 11.4559 2.48828L11.4546 2.48698C11.3817 2.41804 11.2429 2.33138 11.0171 2.24414C10.797 2.15907 10.5219 2.08357 10.2027 2.02148C9.56422 1.89732 8.78737 1.83334 8.0015 1.83333C7.21569 1.83333 6.43877 1.89735 5.80033 2.02148C5.48104 2.08358 5.20537 2.15906 4.98522 2.24414C4.7596 2.33135 4.62066 2.41806 4.54772 2.48698L4.54642 2.48828C4.41584 2.61071 4.31048 2.75757 4.23652 2.92057C4.146 3.12011 4.1328 3.32292 4.27493 3.75651C4.42802 4.22339 4.71155 4.81994 5.12845 5.80534C5.23593 6.05959 5.11702 6.35267 4.86283 6.46029C4.60851 6.56788 4.31482 6.44898 4.20723 6.19466C3.81759 5.27371 3.49467 4.58708 3.32441 4.06771C3.14324 3.51501 3.08959 3.02759 3.32572 2.50716C3.45383 2.22483 3.63661 1.97049 3.86283 1.75846C4.06835 1.56483 4.34062 1.42117 4.6252 1.3112C4.91601 1.19883 5.25132 1.10926 5.60892 1.03971C6.3245 0.900551 7.16777 0.833333 8.0015 0.833333Z" fill="#998989"/>
<path d="M8.00138 4.83333C9.09219 4.83353 10.161 5.13965 11.0867 5.7168C12.0122 6.29392 12.7575 7.11898 13.2377 8.09831C13.7179 9.07777 13.914 10.1726 13.8035 11.2578C13.6929 12.3431 13.2806 13.3758 12.6127 14.2383C12.3335 14.599 12.0341 14.8487 11.6622 14.9961C11.3038 15.1382 10.9216 15.1667 10.5196 15.1667H5.48119C5.07948 15.1667 4.69751 15.1382 4.33927 14.9961C4.01416 14.8671 3.74431 14.6598 3.49487 14.3685L3.3894 14.2383C2.7215 13.3758 2.30854 12.3431 2.19799 11.2578C2.08747 10.1725 2.28344 9.07778 2.76375 8.09831C3.24406 7.11885 3.98972 6.29393 4.91544 5.7168C5.84121 5.13966 6.91044 4.83337 8.00138 4.83333ZM8.00138 5.83333C7.09755 5.83337 6.21175 6.087 5.44474 6.5651C4.67768 7.04329 4.05952 7.72685 3.66153 8.53841C3.26356 9.34996 3.10123 10.257 3.19278 11.1562C3.28435 12.0554 3.62642 12.911 4.17976 13.6257L4.25333 13.7161C4.42136 13.9129 4.5649 14.0101 4.70841 14.0671C4.8858 14.1374 5.11242 14.1667 5.48119 14.1667H10.5196C10.8889 14.1667 11.1161 14.1374 11.2937 14.0671C11.4578 14.002 11.6215 13.8842 11.8217 13.6257C12.375 12.911 12.7171 12.0554 12.8087 11.1562C12.9002 10.2572 12.7378 9.35052 12.3399 8.53906C11.942 7.7275 11.3243 7.04334 10.5574 6.5651C9.79054 6.08703 8.90503 5.83353 8.00138 5.83333Z" fill="#998989"/>
<path d="M6 10.1667C6.27614 10.1667 6.5 10.3905 6.5 10.6667C6.5 10.9428 6.27614 11.1667 6 11.1667H5C4.72386 11.1667 4.5 10.9428 4.5 10.6667C4.5 10.3905 4.72386 10.1667 5 10.1667H6ZM11 10.1667C11.2761 10.1667 11.5 10.3905 11.5 10.6667C11.5 10.9428 11.2761 11.1667 11 11.1667H10C9.72386 11.1667 9.5 10.9428 9.5 10.6667C9.5 10.3905 9.72386 10.1667 10 10.1667H11Z" fill="#998989"/>
<path d="M9.5 10.6667C9.5 9.83824 8.82843 9.16667 8 9.16667C7.17157 9.16667 6.5 9.83824 6.5 10.6667C6.5 11.4951 7.17157 12.1667 8 12.1667C8.82843 12.1667 9.5 11.4951 9.5 10.6667ZM10.5 10.6667C10.5 12.0474 9.38071 13.1667 8 13.1667C6.61929 13.1667 5.5 12.0474 5.5 10.6667C5.5 9.28595 6.61929 8.16667 8 8.16667C9.38071 8.16667 10.5 9.28595 10.5 10.6667Z" fill="#998989"/>
</svg>
